<?xml version="1.0" encoding="UTF-8"?><svg id="Capa_2" xmlns="http://www.w3.org/2000/svg" viewBox="0 0 566.93 73.05"><defs><style>.cls-1{fill:#431034;}</style></defs><g id="Ebene_1"><path class="cls-1" d="M61.08,71.22V2.94c0-1.02-.91-1.93-1.93-1.93h-12.18c-1.12,0-1.93.91-1.93,1.93v36.02h-.1L4.46,0H1.93C.91,0,0,.81,0,1.83l.1,68.28c0,1.01.91,1.93,1.93,1.93h12.07c1.12,0,1.93-.91,1.93-1.93v-37.84h.1l40.07,40.28c.2.2,1.01.51,1.32.51h1.62c1.01,0,1.93-.81,1.93-1.83M127.76,36.62c0,11.06-9.13,20.19-20.29,20.19s-20.19-9.13-20.19-20.19,9.13-20.39,20.19-20.39,20.29,9.23,20.29,20.39M143.99,36.62C143.99,16.33,127.76,0,107.47,0s-36.42,16.33-36.42,36.62,16.13,36.42,36.42,36.42,36.52-16.13,36.52-36.42M211.19,3.65c.61-1.32-.2-2.64-1.73-2.64h-13.49c-.81,0-1.52.61-1.73,1.12l-16.74,37.03h-.61L160.16,2.13c-.2-.51-.91-1.12-1.73-1.12h-13.49c-1.52,0-2.33,1.32-1.72,2.64l31.65,68.28c.3.61.91,1.12,1.72,1.12h1.01c.81,0,1.42-.51,1.73-1.12L211.19,3.65ZM265.62,70.1v-11.06c0-1.01-.81-1.93-1.93-1.93h-28.1v-13.7h23.13c1.01,0,1.93-.81,1.93-1.93v-11.06c0-1.02-.91-1.93-1.93-1.93h-23.13v-12.58h28.1c1.12,0,1.93-.91,1.93-1.93V2.94c0-1.02-.81-1.93-1.93-1.93h-42c-1.12,0-1.93.91-1.93,1.93v67.16c0,1.01.81,1.93,1.93,1.93h42c1.12,0,1.93-.91,1.93-1.93M321.22,57.12h-24.15V2.94c0-1.02-.91-1.93-1.93-1.93h-12.07c-1.12,0-1.93.91-1.93,1.93v67.16c0,1.01.81,1.93,1.93,1.93h38.15c1.12,0,1.93-.91,1.93-1.93v-11.06c0-1.01-.81-1.93-1.93-1.93M370.09,14V2.94c0-1.02-.81-1.93-1.93-1.93h-45.04c-1.12,0-1.93.91-1.93,1.93v11.06c0,1.01.81,1.93,1.93,1.93h14.51v54.18c0,1.01.91,1.93,1.93,1.93h12.17c1.01,0,1.93-.91,1.93-1.93V15.93h14.51c1.12,0,1.93-.91,1.93-1.93M427.5,70.1v-11.06c0-1.01-.81-1.93-1.93-1.93h-28.1v-13.7h23.13c1.01,0,1.93-.81,1.93-1.93v-11.06c0-1.02-.91-1.93-1.93-1.93h-23.13v-12.58h28.1c1.12,0,1.93-.91,1.93-1.93V2.94c0-1.02-.81-1.93-1.93-1.93h-42c-1.12,0-1.93.91-1.93,1.93v67.16c0,1.01.81,1.93,1.93,1.93h42c1.12,0,1.93-.91,1.93-1.93M501.81,69.39L470.16,1.12c-.3-.61-.91-1.12-1.73-1.12h-1.01c-.81,0-1.42.51-1.72,1.12l-31.86,68.28c-.61,1.32.2,2.64,1.73,2.64h13.49c.81,0,1.52-.61,1.73-1.12l16.74-37.03h.61l16.74,37.03c.2.51.91,1.12,1.73,1.12h13.49c1.52,0,2.33-1.32,1.73-2.64M566.49,68.18l-25.87-33.68,23.74-29.73c1.12-1.52.1-3.75-1.83-3.75h-12.78c-.61,0-1.52.51-1.93,1.01l-22.52,28.1V3.45c0-1.32-1.12-2.43-2.44-2.43h-11.87c-1.42,0-2.43,1.12-2.43,2.43v66.15c0,1.32,1.01,2.43,2.43,2.43h11.87c1.32,0,2.44-1.12,2.44-2.43v-30.23l23.44,31.86c.2.3,1.12.71,1.83.71h14c1.93,0,3.04-2.23,1.93-3.75"/></g></svg>